<?xml version="1.0" encoding="utf-8" standalone="no"?>
<!DOCTYPE svg PUBLIC "-//W3C//DTD SVG 1.1//EN"
  "http://www.w3.org/Graphics/SVG/1.1/DTD/svg11.dtd">
<!-- Created with matplotlib (https://matplotlib.org/) -->
<svg height="648pt" version="1.1" viewBox="0 0 1152 648" width="1152pt" xmlns="http://www.w3.org/2000/svg" xmlns:xlink="http://www.w3.org/1999/xlink">
 <metadata>
  <rdf:RDF xmlns:cc="http://creativecommons.org/ns#" xmlns:dc="http://purl.org/dc/elements/1.1/" xmlns:rdf="http://www.w3.org/1999/02/22-rdf-syntax-ns#">
   <cc:Work>
    <dc:type rdf:resource="http://purl.org/dc/dcmitype/StillImage"/>
    <dc:date>2021-01-15T11:58:10.052463</dc:date>
    <dc:format>image/svg+xml</dc:format>
    <dc:creator>
     <cc:Agent>
      <dc:title>Matplotlib v3.3.3, https://matplotlib.org/</dc:title>
     </cc:Agent>
    </dc:creator>
   </cc:Work>
  </rdf:RDF>
 </metadata>
 <defs>
  <style type="text/css">*{stroke-linecap:butt;stroke-linejoin:round;}</style>
 </defs>
 <g id="figure_1">
  <g id="patch_1">
   <path d="M 0 648 
L 1152 648 
L 1152 0 
L 0 0 
z
" style="fill:none;"/>
  </g>
  <g id="axes_1">
   <g id="LineCollection_1">
    <path clip-path="url(#pfcdba8569e)" d="M 590.4 100.44 
L 455.127273 327.24 
" style="fill:none;stroke:#909090;stroke-width:4;"/>
    <path clip-path="url(#pfcdba8569e)" d="M 590.4 100.44 
L 725.672727 327.24 
" style="fill:none;stroke:#909090;stroke-width:4;"/>
    <path clip-path="url(#pfcdba8569e)" d="M 455.127273 327.24 
L 184.581818 554.04 
" style="fill:none;stroke:#909090;stroke-width:4;"/>
    <path clip-path="url(#pfcdba8569e)" d="M 455.127273 327.24 
L 455.127273 554.04 
" style="fill:none;stroke:#909090;stroke-width:4;"/>
    <path clip-path="url(#pfcdba8569e)" d="M 725.672727 327.24 
L 725.672727 554.04 
" style="fill:none;stroke:#909090;stroke-width:4;"/>
    <path clip-path="url(#pfcdba8569e)" d="M 725.672727 327.24 
L 996.218182 554.04 
" style="fill:none;stroke:#909090;stroke-width:4;"/>
   </g>
   <g id="PathCollection_1">
    <defs>
     <path d="M 0 22.36068 
C 5.930122 22.36068 11.618159 20.004617 15.811388 15.811388 
C 20.004617 11.618159 22.36068 5.930122 22.36068 -0 
C 22.36068 -5.930122 20.004617 -11.618159 15.811388 -15.811388 
C 11.618159 -20.004617 5.930122 -22.36068 0 -22.36068 
C -5.930122 -22.36068 -11.618159 -20.004617 -15.811388 -15.811388 
C -20.004617 -11.618159 -22.36068 -5.930122 -22.36068 0 
C -22.36068 5.930122 -20.004617 11.618159 -15.811388 15.811388 
C -11.618159 20.004617 -5.930122 22.36068 0 22.36068 
z
" id="C0_0_3cbcf0a315"/>
    </defs>
    <g clip-path="url(#pfcdba8569e)">
     <use style="fill:#ffff00;stroke:#ffff00;" x="590.4" xlink:href="#C0_0_3cbcf0a315" y="100.44"/>
    </g>
    <g clip-path="url(#pfcdba8569e)">
     <use style="fill:#d3d3d3;stroke:#d3d3d3;" x="455.127273" xlink:href="#C0_0_3cbcf0a315" y="327.24"/>
    </g>
    <g clip-path="url(#pfcdba8569e)">
     <use style="fill:#d3d3d3;stroke:#d3d3d3;" x="725.672727" xlink:href="#C0_0_3cbcf0a315" y="327.24"/>
    </g>
    <g clip-path="url(#pfcdba8569e)">
     <use style="fill:#d3d3d3;stroke:#d3d3d3;" x="184.581818" xlink:href="#C0_0_3cbcf0a315" y="554.04"/>
    </g>
    <g clip-path="url(#pfcdba8569e)">
     <use style="fill:#d3d3d3;stroke:#d3d3d3;" x="455.127273" xlink:href="#C0_0_3cbcf0a315" y="554.04"/>
    </g>
    <g clip-path="url(#pfcdba8569e)">
     <use style="fill:#d3d3d3;stroke:#d3d3d3;" x="725.672727" xlink:href="#C0_0_3cbcf0a315" y="554.04"/>
    </g>
    <g clip-path="url(#pfcdba8569e)">
     <use style="fill:#d3d3d3;stroke:#d3d3d3;" x="996.218182" xlink:href="#C0_0_3cbcf0a315" y="554.04"/>
    </g>
   </g>
   <g id="text_1">
    <g clip-path="url(#pfcdba8569e)">
     <!-- 12 -->
     <g transform="translate(582.765 103.75125)scale(0.12 -0.12)">
      <defs>
       <path d="M 12.40625 8.296875 
L 28.515625 8.296875 
L 28.515625 63.921875 
L 10.984375 60.40625 
L 10.984375 69.390625 
L 28.421875 72.90625 
L 38.28125 72.90625 
L 38.28125 8.296875 
L 54.390625 8.296875 
L 54.390625 0 
L 12.40625 0 
z
" id="DejaVuSans-49"/>
       <path d="M 19.1875 8.296875 
L 53.609375 8.296875 
L 53.609375 0 
L 7.328125 0 
L 7.328125 8.296875 
Q 12.9375 14.109375 22.625 23.890625 
Q 32.328125 33.6875 34.8125 36.53125 
Q 39.546875 41.84375 41.421875 45.53125 
Q 43.3125 49.21875 43.3125 52.78125 
Q 43.3125 58.59375 39.234375 62.25 
Q 35.15625 65.921875 28.609375 65.921875 
Q 23.96875 65.921875 18.8125 64.3125 
Q 13.671875 62.703125 7.8125 59.421875 
L 7.8125 69.390625 
Q 13.765625 71.78125 18.9375 73 
Q 24.125 74.21875 28.421875 74.21875 
Q 39.75 74.21875 46.484375 68.546875 
Q 53.21875 62.890625 53.21875 53.421875 
Q 53.21875 48.921875 51.53125 44.890625 
Q 49.859375 40.875 45.40625 35.40625 
Q 44.1875 33.984375 37.640625 27.21875 
Q 31.109375 20.453125 19.1875 8.296875 
z
" id="DejaVuSans-50"/>
      </defs>
      <use xlink:href="#DejaVuSans-49"/>
      <use x="63.623047" xlink:href="#DejaVuSans-50"/>
     </g>
    </g>
   </g>
  </g>
 </g>
 <defs>
  <clipPath id="pfcdba8569e">
   <rect height="498.96" width="892.8" x="144" y="77.76"/>
  </clipPath>
 </defs>
</svg>
