<?xml version="1.0" encoding="utf-8" standalone="no"?>
<!DOCTYPE svg PUBLIC "-//W3C//DTD SVG 1.1//EN"
  "http://www.w3.org/Graphics/SVG/1.1/DTD/svg11.dtd">
<!-- Created with matplotlib (https://matplotlib.org/) -->
<svg height="864pt" version="1.1" viewBox="0 0 1152 864" width="1152pt" xmlns="http://www.w3.org/2000/svg" xmlns:xlink="http://www.w3.org/1999/xlink">
 <metadata>
  <rdf:RDF xmlns:cc="http://creativecommons.org/ns#" xmlns:dc="http://purl.org/dc/elements/1.1/" xmlns:rdf="http://www.w3.org/1999/02/22-rdf-syntax-ns#">
   <cc:Work>
    <dc:type rdf:resource="http://purl.org/dc/dcmitype/StillImage"/>
    <dc:date>2020-12-06T18:35:54.706437</dc:date>
    <dc:format>image/svg+xml</dc:format>
    <dc:creator>
     <cc:Agent>
      <dc:title>Matplotlib v3.3.3, https://matplotlib.org/</dc:title>
     </cc:Agent>
    </dc:creator>
   </cc:Work>
  </rdf:RDF>
 </metadata>
 <defs>
  <style type="text/css">*{stroke-linecap:butt;stroke-linejoin:round;}</style>
 </defs>
 <g id="figure_1">
  <g id="patch_1">
   <path d="M 0 864 
L 1152 864 
L 1152 0 
L 0 0 
z
" style="fill:#ffffff;"/>
  </g>
  <g id="axes_1">
   <g id="LineCollection_1">
    <path clip-path="url(#p8522baf04d)" d="M 691.854545 133.92 
L 488.945455 436.32 
" style="fill:none;stroke:#000000;stroke-width:4;"/>
    <path clip-path="url(#p8522baf04d)" d="M 691.854545 133.92 
L 793.309091 436.32 
" style="fill:none;stroke:#000000;stroke-width:4;"/>
    <path clip-path="url(#p8522baf04d)" d="M 488.945455 436.32 
L 184.581818 738.72 
" style="fill:none;stroke:#000000;stroke-width:4;"/>
    <path clip-path="url(#p8522baf04d)" d="M 488.945455 436.32 
L 387.490909 738.72 
" style="fill:none;stroke:#000000;stroke-width:4;"/>
    <path clip-path="url(#p8522baf04d)" d="M 488.945455 436.32 
L 590.4 738.72 
" style="fill:none;stroke:#000000;stroke-width:4;"/>
    <path clip-path="url(#p8522baf04d)" d="M 793.309091 436.32 
L 793.309091 738.72 
" style="fill:none;stroke:#000000;stroke-width:4;"/>
    <path clip-path="url(#p8522baf04d)" d="M 793.309091 436.32 
L 996.218182 738.72 
" style="fill:none;stroke:#000000;stroke-width:4;"/>
   </g>
   <g id="PathCollection_1">
    <defs>
     <path d="M 0 22.36068 
C 5.930122 22.36068 11.618159 20.004617 15.811388 15.811388 
C 20.004617 11.618159 22.36068 5.930122 22.36068 0 
C 22.36068 -5.930122 20.004617 -11.618159 15.811388 -15.811388 
C 11.618159 -20.004617 5.930122 -22.36068 0 -22.36068 
C -5.930122 -22.36068 -11.618159 -20.004617 -15.811388 -15.811388 
C -20.004617 -11.618159 -22.36068 -5.930122 -22.36068 0 
C -22.36068 5.930122 -20.004617 11.618159 -15.811388 15.811388 
C -11.618159 20.004617 -5.930122 22.36068 0 22.36068 
z
" id="m397976a822" style="stroke:#bf00b0;"/>
    </defs>
    <g clip-path="url(#p8522baf04d)">
     <use style="fill:#bf00b0;stroke:#bf00b0;" x="691.854545" xlink:href="#m397976a822" y="133.92"/>
     <use style="fill:#bf00b0;stroke:#bf00b0;" x="488.945455" xlink:href="#m397976a822" y="436.32"/>
     <use style="fill:#bf00b0;stroke:#bf00b0;" x="793.309091" xlink:href="#m397976a822" y="436.32"/>
     <use style="fill:#bf00b0;stroke:#bf00b0;" x="184.581818" xlink:href="#m397976a822" y="738.72"/>
     <use style="fill:#bf00b0;stroke:#bf00b0;" x="387.490909" xlink:href="#m397976a822" y="738.72"/>
     <use style="fill:#bf00b0;stroke:#bf00b0;" x="590.4" xlink:href="#m397976a822" y="738.72"/>
     <use style="fill:#bf00b0;stroke:#bf00b0;" x="793.309091" xlink:href="#m397976a822" y="738.72"/>
     <use style="fill:#bf00b0;stroke:#bf00b0;" x="996.218182" xlink:href="#m397976a822" y="738.72"/>
    </g>
   </g>
  </g>
 </g>
 <defs>
  <clipPath id="p8522baf04d">
   <rect height="665.28" width="892.8" x="144" y="103.68"/>
  </clipPath>
 </defs>
</svg>
