<?xml version="1.0" encoding="utf-8" standalone="no"?>
<!DOCTYPE svg PUBLIC "-//W3C//DTD SVG 1.1//EN"
  "http://www.w3.org/Graphics/SVG/1.1/DTD/svg11.dtd">
<!-- Created with matplotlib (https://matplotlib.org/) -->
<svg height="648pt" version="1.1" viewBox="0 0 1152 648" width="1152pt" xmlns="http://www.w3.org/2000/svg" xmlns:xlink="http://www.w3.org/1999/xlink">
 <metadata>
  <rdf:RDF xmlns:cc="http://creativecommons.org/ns#" xmlns:dc="http://purl.org/dc/elements/1.1/" xmlns:rdf="http://www.w3.org/1999/02/22-rdf-syntax-ns#">
   <cc:Work>
    <dc:type rdf:resource="http://purl.org/dc/dcmitype/StillImage"/>
    <dc:date>2021-01-06T02:27:03.800274</dc:date>
    <dc:format>image/svg+xml</dc:format>
    <dc:creator>
     <cc:Agent>
      <dc:title>Matplotlib v3.3.3, https://matplotlib.org/</dc:title>
     </cc:Agent>
    </dc:creator>
   </cc:Work>
  </rdf:RDF>
 </metadata>
 <defs>
  <style type="text/css">*{stroke-linecap:butt;stroke-linejoin:round;}</style>
 </defs>
 <g id="figure_1">
  <g id="patch_1">
   <path d="M 0 648 
L 1152 648 
L 1152 0 
L 0 0 
z
" style="fill:none;"/>
  </g>
  <g id="axes_1">
   <g id="LineCollection_1">
    <path clip-path="url(#pce8ebc4838)" d="M 590.4 100.44 
L 455.127273 327.24 
" style="fill:none;stroke:#909090;stroke-width:4;"/>
    <path clip-path="url(#pce8ebc4838)" d="M 590.4 100.44 
L 725.672727 327.24 
" style="fill:none;stroke:#909090;stroke-width:4;"/>
    <path clip-path="url(#pce8ebc4838)" d="M 455.127273 327.24 
L 184.581818 554.04 
" style="fill:none;stroke:#909090;stroke-width:4;"/>
    <path clip-path="url(#pce8ebc4838)" d="M 455.127273 327.24 
L 455.127273 554.04 
" style="fill:none;stroke:#909090;stroke-width:4;"/>
    <path clip-path="url(#pce8ebc4838)" d="M 725.672727 327.24 
L 725.672727 554.04 
" style="fill:none;stroke:#909090;stroke-width:4;"/>
    <path clip-path="url(#pce8ebc4838)" d="M 725.672727 327.24 
L 996.218182 554.04 
" style="fill:none;stroke:#909090;stroke-width:4;"/>
   </g>
   <g id="PathCollection_1">
    <defs>
     <path d="M 0 22.36068 
C 5.930122 22.36068 11.618159 20.004617 15.811388 15.811388 
C 20.004617 11.618159 22.36068 5.930122 22.36068 -0 
C 22.36068 -5.930122 20.004617 -11.618159 15.811388 -15.811388 
C 11.618159 -20.004617 5.930122 -22.36068 0 -22.36068 
C -5.930122 -22.36068 -11.618159 -20.004617 -15.811388 -15.811388 
C -20.004617 -11.618159 -22.36068 -5.930122 -22.36068 0 
C -22.36068 5.930122 -20.004617 11.618159 -15.811388 15.811388 
C -11.618159 20.004617 -5.930122 22.36068 0 22.36068 
z
" id="C0_0_ed940d7e23"/>
    </defs>
    <g clip-path="url(#pce8ebc4838)">
     <use style="fill:#ffff00;stroke:#ffff00;" x="590.4" xlink:href="#C0_0_ed940d7e23" y="100.44"/>
    </g>
    <g clip-path="url(#pce8ebc4838)">
     <use style="fill:#ffff00;stroke:#ffff00;" x="455.127273" xlink:href="#C0_0_ed940d7e23" y="327.24"/>
    </g>
    <g clip-path="url(#pce8ebc4838)">
     <use style="fill:#ffff00;stroke:#ffff00;" x="725.672727" xlink:href="#C0_0_ed940d7e23" y="327.24"/>
    </g>
    <g clip-path="url(#pce8ebc4838)">
     <use style="fill:#ffff00;stroke:#ffff00;" x="184.581818" xlink:href="#C0_0_ed940d7e23" y="554.04"/>
    </g>
    <g clip-path="url(#pce8ebc4838)">
     <use style="fill:#ffff00;stroke:#ffff00;" x="455.127273" xlink:href="#C0_0_ed940d7e23" y="554.04"/>
    </g>
    <g clip-path="url(#pce8ebc4838)">
     <use style="fill:#ffff00;stroke:#ffff00;" x="725.672727" xlink:href="#C0_0_ed940d7e23" y="554.04"/>
    </g>
    <g clip-path="url(#pce8ebc4838)">
     <use style="fill:#d3d3d3;stroke:#d3d3d3;" x="996.218182" xlink:href="#C0_0_ed940d7e23" y="554.04"/>
    </g>
   </g>
   <g id="text_1">
    <g clip-path="url(#pce8ebc4838)">
     <!-- 1 -->
     <g transform="translate(586.5825 103.75125)scale(0.12 -0.12)">
      <defs>
       <path d="M 12.40625 8.296875 
L 28.515625 8.296875 
L 28.515625 63.921875 
L 10.984375 60.40625 
L 10.984375 69.390625 
L 28.421875 72.90625 
L 38.28125 72.90625 
L 38.28125 8.296875 
L 54.390625 8.296875 
L 54.390625 0 
L 12.40625 0 
z
" id="DejaVuSans-49"/>
      </defs>
      <use xlink:href="#DejaVuSans-49"/>
     </g>
    </g>
   </g>
   <g id="text_2">
    <g clip-path="url(#pce8ebc4838)">
     <!-- 10 -->
     <g transform="translate(447.492273 330.55125)scale(0.12 -0.12)">
      <defs>
       <path d="M 31.78125 66.40625 
Q 24.171875 66.40625 20.328125 58.90625 
Q 16.5 51.421875 16.5 36.375 
Q 16.5 21.390625 20.328125 13.890625 
Q 24.171875 6.390625 31.78125 6.390625 
Q 39.453125 6.390625 43.28125 13.890625 
Q 47.125 21.390625 47.125 36.375 
Q 47.125 51.421875 43.28125 58.90625 
Q 39.453125 66.40625 31.78125 66.40625 
z
M 31.78125 74.21875 
Q 44.046875 74.21875 50.515625 64.515625 
Q 56.984375 54.828125 56.984375 36.375 
Q 56.984375 17.96875 50.515625 8.265625 
Q 44.046875 -1.421875 31.78125 -1.421875 
Q 19.53125 -1.421875 13.0625 8.265625 
Q 6.59375 17.96875 6.59375 36.375 
Q 6.59375 54.828125 13.0625 64.515625 
Q 19.53125 74.21875 31.78125 74.21875 
z
" id="DejaVuSans-48"/>
      </defs>
      <use xlink:href="#DejaVuSans-49"/>
      <use x="63.623047" xlink:href="#DejaVuSans-48"/>
     </g>
    </g>
   </g>
   <g id="text_3">
    <g clip-path="url(#pce8ebc4838)">
     <!-- 5 -->
     <g transform="translate(721.855227 330.55125)scale(0.12 -0.12)">
      <defs>
       <path d="M 10.796875 72.90625 
L 49.515625 72.90625 
L 49.515625 64.59375 
L 19.828125 64.59375 
L 19.828125 46.734375 
Q 21.96875 47.46875 24.109375 47.828125 
Q 26.265625 48.1875 28.421875 48.1875 
Q 40.625 48.1875 47.75 41.5 
Q 54.890625 34.8125 54.890625 23.390625 
Q 54.890625 11.625 47.5625 5.09375 
Q 40.234375 -1.421875 26.90625 -1.421875 
Q 22.3125 -1.421875 17.546875 -0.640625 
Q 12.796875 0.140625 7.71875 1.703125 
L 7.71875 11.625 
Q 12.109375 9.234375 16.796875 8.0625 
Q 21.484375 6.890625 26.703125 6.890625 
Q 35.15625 6.890625 40.078125 11.328125 
Q 45.015625 15.765625 45.015625 23.390625 
Q 45.015625 31 40.078125 35.4375 
Q 35.15625 39.890625 26.703125 39.890625 
Q 22.75 39.890625 18.8125 39.015625 
Q 14.890625 38.140625 10.796875 36.28125 
z
" id="DejaVuSans-53"/>
      </defs>
      <use xlink:href="#DejaVuSans-53"/>
     </g>
    </g>
   </g>
   <g id="text_4">
    <g clip-path="url(#pce8ebc4838)">
     <!-- 15 -->
     <g transform="translate(176.946818 557.35125)scale(0.12 -0.12)">
      <use xlink:href="#DejaVuSans-49"/>
      <use x="63.623047" xlink:href="#DejaVuSans-53"/>
     </g>
    </g>
   </g>
   <g id="text_5">
    <g clip-path="url(#pce8ebc4838)">
     <!-- 107 -->
     <g transform="translate(443.674773 557.35125)scale(0.12 -0.12)">
      <defs>
       <path d="M 8.203125 72.90625 
L 55.078125 72.90625 
L 55.078125 68.703125 
L 28.609375 0 
L 18.3125 0 
L 43.21875 64.59375 
L 8.203125 64.59375 
z
" id="DejaVuSans-55"/>
      </defs>
      <use xlink:href="#DejaVuSans-49"/>
      <use x="63.623047" xlink:href="#DejaVuSans-48"/>
      <use x="127.246094" xlink:href="#DejaVuSans-55"/>
     </g>
    </g>
   </g>
   <g id="text_6">
    <g clip-path="url(#pce8ebc4838)">
     <!-- 9 -->
     <g transform="translate(721.855227 557.35125)scale(0.12 -0.12)">
      <defs>
       <path d="M 10.984375 1.515625 
L 10.984375 10.5 
Q 14.703125 8.734375 18.5 7.8125 
Q 22.3125 6.890625 25.984375 6.890625 
Q 35.75 6.890625 40.890625 13.453125 
Q 46.046875 20.015625 46.78125 33.40625 
Q 43.953125 29.203125 39.59375 26.953125 
Q 35.25 24.703125 29.984375 24.703125 
Q 19.046875 24.703125 12.671875 31.3125 
Q 6.296875 37.9375 6.296875 49.421875 
Q 6.296875 60.640625 12.9375 67.421875 
Q 19.578125 74.21875 30.609375 74.21875 
Q 43.265625 74.21875 49.921875 64.515625 
Q 56.59375 54.828125 56.59375 36.375 
Q 56.59375 19.140625 48.40625 8.859375 
Q 40.234375 -1.421875 26.421875 -1.421875 
Q 22.703125 -1.421875 18.890625 -0.6875 
Q 15.09375 0.046875 10.984375 1.515625 
z
M 30.609375 32.421875 
Q 37.25 32.421875 41.125 36.953125 
Q 45.015625 41.5 45.015625 49.421875 
Q 45.015625 57.28125 41.125 61.84375 
Q 37.25 66.40625 30.609375 66.40625 
Q 23.96875 66.40625 20.09375 61.84375 
Q 16.21875 57.28125 16.21875 49.421875 
Q 16.21875 41.5 20.09375 36.953125 
Q 23.96875 32.421875 30.609375 32.421875 
z
" id="DejaVuSans-57"/>
      </defs>
      <use xlink:href="#DejaVuSans-57"/>
     </g>
    </g>
   </g>
  </g>
 </g>
 <defs>
  <clipPath id="pce8ebc4838">
   <rect height="498.96" width="892.8" x="144" y="77.76"/>
  </clipPath>
 </defs>
</svg>
