<?xml version="1.0" encoding="utf-8" standalone="no"?>
<!DOCTYPE svg PUBLIC "-//W3C//DTD SVG 1.1//EN"
  "http://www.w3.org/Graphics/SVG/1.1/DTD/svg11.dtd">
<!-- Created with matplotlib (https://matplotlib.org/) -->
<svg height="864pt" version="1.1" viewBox="0 0 1152 864" width="1152pt" xmlns="http://www.w3.org/2000/svg" xmlns:xlink="http://www.w3.org/1999/xlink">
 <metadata>
  <rdf:RDF xmlns:cc="http://creativecommons.org/ns#" xmlns:dc="http://purl.org/dc/elements/1.1/" xmlns:rdf="http://www.w3.org/1999/02/22-rdf-syntax-ns#">
   <cc:Work>
    <dc:type rdf:resource="http://purl.org/dc/dcmitype/StillImage"/>
    <dc:date>2020-12-16T10:29:50.000127</dc:date>
    <dc:format>image/svg+xml</dc:format>
    <dc:creator>
     <cc:Agent>
      <dc:title>Matplotlib v3.3.3, https://matplotlib.org/</dc:title>
     </cc:Agent>
    </dc:creator>
   </cc:Work>
  </rdf:RDF>
 </metadata>
 <defs>
  <style type="text/css">*{stroke-linecap:butt;stroke-linejoin:round;}</style>
 </defs>
 <g id="figure_1">
  <g id="patch_1">
   <path d="M 0 864 
L 1152 864 
L 1152 0 
L 0 0 
z
" style="fill:none;"/>
  </g>
  <g id="axes_1">
   <g id="LineCollection_1">
    <path clip-path="url(#p4d2d787d4d)" d="M 574.167273 436.32 
L 513.970909 285.108959 
" style="fill:none;stroke:#000000;stroke-width:4;"/>
    <path clip-path="url(#p4d2d787d4d)" d="M 574.167273 436.32 
L 513.970909 587.517792 
" style="fill:none;stroke:#000000;stroke-width:4;"/>
    <path clip-path="url(#p4d2d787d4d)" d="M 574.167273 436.32 
L 731.76 529.76701 
" style="fill:none;stroke:#000000;stroke-width:4;"/>
    <path clip-path="url(#p4d2d787d4d)" d="M 513.970909 285.108959 
L 889.352727 249.42598 
" style="fill:none;stroke:#000000;stroke-width:4;"/>
    <path clip-path="url(#p4d2d787d4d)" d="M 513.970909 285.108959 
L 453.774545 133.92 
" style="fill:none;stroke:#000000;stroke-width:4;"/>
    <path clip-path="url(#p4d2d787d4d)" d="M 513.970909 285.108959 
L 184.581818 436.32 
" style="fill:none;stroke:#000000;stroke-width:4;"/>
    <path clip-path="url(#p4d2d787d4d)" d="M 513.970909 587.517792 
L 453.774545 738.72 
" style="fill:none;stroke:#000000;stroke-width:4;"/>
    <path clip-path="url(#p4d2d787d4d)" d="M 513.970909 587.517792 
L 731.76 529.76701 
" style="fill:none;stroke:#000000;stroke-width:4;"/>
    <path clip-path="url(#p4d2d787d4d)" d="M 184.581818 436.32 
L 731.76 529.76701 
" style="fill:none;stroke:#000000;stroke-width:4;"/>
   </g>
   <g id="PathCollection_1">
    <defs>
     <path d="M 0 21.081851 
C 5.590972 21.081851 10.953705 18.860534 14.90712 14.90712 
C 18.860534 10.953705 21.081851 5.590972 21.081851 0 
C 21.081851 -5.590972 18.860534 -10.953705 14.90712 -14.90712 
C 10.953705 -18.860534 5.590972 -21.081851 0 -21.081851 
C -5.590972 -21.081851 -10.953705 -18.860534 -14.90712 -14.90712 
C -18.860534 -10.953705 -21.081851 -5.590972 -21.081851 0 
C -21.081851 5.590972 -18.860534 10.953705 -14.90712 14.90712 
C -10.953705 18.860534 -5.590972 21.081851 0 21.081851 
z
" id="m86d9f21e2b" style="stroke:#ffff00;"/>
    </defs>
    <g clip-path="url(#p4d2d787d4d)">
     <use style="fill:#ffff00;stroke:#ffff00;" x="574.167273" xlink:href="#m86d9f21e2b" y="436.32"/>
     <use style="fill:#ffff00;stroke:#ffff00;" x="513.970909" xlink:href="#m86d9f21e2b" y="285.108959"/>
     <use style="fill:#ffff00;stroke:#ffff00;" x="513.970909" xlink:href="#m86d9f21e2b" y="587.517792"/>
     <use style="fill:#ffff00;stroke:#ffff00;" x="889.352727" xlink:href="#m86d9f21e2b" y="249.42598"/>
     <use style="fill:#ffff00;stroke:#ffff00;" x="453.774545" xlink:href="#m86d9f21e2b" y="133.92"/>
     <use style="fill:#ffff00;stroke:#ffff00;" x="184.581818" xlink:href="#m86d9f21e2b" y="436.32"/>
     <use style="fill:#ffff00;stroke:#ffff00;" x="453.774545" xlink:href="#m86d9f21e2b" y="738.72"/>
     <use style="fill:#ffff00;stroke:#ffff00;" x="731.76" xlink:href="#m86d9f21e2b" y="529.76701"/>
     <use style="fill:#ffff00;stroke:#ffff00;" x="996.218182" xlink:href="#m86d9f21e2b" y="628.420732"/>
    </g>
   </g>
  </g>
 </g>
 <defs>
  <clipPath id="p4d2d787d4d">
   <rect height="665.28" width="892.8" x="144" y="103.68"/>
  </clipPath>
 </defs>
</svg>
